<svg id="Capa_1" data-name="Capa 1" xmlns="http://www.w3.org/2000/svg" viewBox="0 0 354.64 71.29"><defs><style>.cls-1{fill:#915a17;}</style></defs><title>ele</title><path class="cls-1" d="M27,17.32A27.53,27.53,0,0,1,36.75,19a21.42,21.42,0,0,1,7.87,5.07,23.75,23.75,0,0,1,5.23,8.4,32.75,32.75,0,0,1,1.9,11.67,31.66,31.66,0,0,1-2,11.72,23.25,23.25,0,0,1-5.65,8.5,23.71,23.71,0,0,1-8.76,5.17,35.26,35.26,0,0,1-11.46,1.75A36.15,36.15,0,0,1,12.46,69.7a30.43,30.43,0,0,1-7.92-3.8,9.3,9.3,0,0,1-4.54-8V1C.77.74,1.8.53,3.06.32A26,26,0,0,1,7.29,0Q12,0,14.1,1.58t2.06,6v12A29.7,29.7,0,0,1,21,18,24.63,24.63,0,0,1,27,17.32ZM24.08,30a13.07,13.07,0,0,0-4.38.69,18.58,18.58,0,0,0-3.65,1.74V56.61A11.08,11.08,0,0,0,19.22,58a16.78,16.78,0,0,0,4.44.53,10.54,10.54,0,0,0,8.39-3.59q3.12-3.6,3.12-10.77,0-7.4-3-10.78A10.3,10.3,0,0,0,24.08,30Z"/><path class="cls-1" d="M75,51a10.26,10.26,0,0,0,5.18,6.28,18.75,18.75,0,0,0,8.55,1.85,27.89,27.89,0,0,0,8.34-1.21,28.46,28.46,0,0,0,6.34-2.7A8.9,8.9,0,0,1,106,58a6.89,6.89,0,0,1,1.06,3.7,6.47,6.47,0,0,1-1.48,4.22,11.44,11.44,0,0,1-4.07,3,23.28,23.28,0,0,1-6.12,1.8,48.93,48.93,0,0,1-7.76.58,36.33,36.33,0,0,1-11.52-1.75,25.07,25.07,0,0,1-9.08-5.17,23.91,23.91,0,0,1-6-8.61,31.38,31.38,0,0,1-2.16-12.14,29.24,29.24,0,0,1,2.16-11.73,23.64,23.64,0,0,1,5.81-8.23,23,23,0,0,1,8.35-4.81,31,31,0,0,1,9.66-1.53A28.63,28.63,0,0,1,94.78,19a22.65,22.65,0,0,1,7.71,4.59,20.71,20.71,0,0,1,5,7.08,22.15,22.15,0,0,1,1.8,9,6.61,6.61,0,0,1-1.8,5.07,9.37,9.37,0,0,1-5.07,2.22ZM85,29.25a10.71,10.71,0,0,0-7.56,2.8q-3,2.81-3.53,8.08L94.1,36.86a8.6,8.6,0,0,0-2.43-5.18Q89.45,29.25,85,29.25Z"/><path class="cls-1" d="M132.33,51a10.25,10.25,0,0,0,5.17,6.28,18.82,18.82,0,0,0,8.56,1.85,28,28,0,0,0,8.34-1.21,28.67,28.67,0,0,0,6.34-2.7A9.13,9.13,0,0,1,163.38,58a6.88,6.88,0,0,1,1.05,3.7A6.46,6.46,0,0,1,163,65.9a11.53,11.53,0,0,1-4.07,3,23.47,23.47,0,0,1-6.13,1.8,48.84,48.84,0,0,1-7.76.58,36.31,36.31,0,0,1-11.51-1.75,25,25,0,0,1-9.08-5.17,23.66,23.66,0,0,1-6-8.61,31.38,31.38,0,0,1-2.16-12.14,29.24,29.24,0,0,1,2.16-11.73,23.51,23.51,0,0,1,5.81-8.23,23.06,23.06,0,0,1,8.34-4.81,31,31,0,0,1,9.67-1.53A28.63,28.63,0,0,1,152.13,19a22.84,22.84,0,0,1,7.71,4.59,20.71,20.71,0,0,1,5,7.08,22.31,22.31,0,0,1,1.79,9,6.65,6.65,0,0,1-1.79,5.07,9.37,9.37,0,0,1-5.07,2.22Zm10-21.76a10.68,10.68,0,0,0-7.55,2.8q-3,2.81-3.54,8.08l20.17-3.27A8.6,8.6,0,0,0,149,31.68Q146.81,29.25,142.36,29.25Z"/><path class="cls-1" d="M192.1,69.6a21.54,21.54,0,0,1-2.95.58,32,32,0,0,1-4.23.26q-4.75,0-6.86-1.53t-2.11-6V30.73a8.66,8.66,0,0,1,1.47-5.07A13.28,13.28,0,0,1,181.54,22a30.18,30.18,0,0,1,8.4-3.33,42.68,42.68,0,0,1,10.3-1.21q11,0,11,7.39a9.67,9.67,0,0,1-.53,3.27,14.42,14.42,0,0,1-1.16,2.54,28.42,28.42,0,0,0-5.91-.53,26.15,26.15,0,0,0-6.13.74,22.15,22.15,0,0,0-5.39,2Z"/><path class="cls-1" d="M294.65,69.6a26,26,0,0,1-3.06.58,32,32,0,0,1-4.23.26q-4.74,0-6.81-1.53t-2.06-6V36.75q0-3.48-1.9-5.12A7.65,7.65,0,0,0,271.42,30a10.6,10.6,0,0,0-4,.74,13.73,13.73,0,0,0-3.33,1.9c.07.36.12.71.16,1.06s0,.7,0,1.06V69.6a26,26,0,0,1-3.06.58,32,32,0,0,1-4.23.26q-4.74,0-6.81-1.53t-2.06-6V36.75a6.07,6.07,0,0,0-2.11-5.12A8.2,8.2,0,0,0,240.9,30a11.15,11.15,0,0,0-4,.69A25.59,25.59,0,0,0,233.93,32V69.6a21.74,21.74,0,0,1-3,.58,32,32,0,0,1-4.23.26q-4.74,0-6.86-1.53t-2.11-6V30.31a7.67,7.67,0,0,1,1.16-4.44,12.7,12.7,0,0,1,3.27-3.16,29.19,29.19,0,0,1,8.61-3.91,38.29,38.29,0,0,1,10.72-1.48,28.82,28.82,0,0,1,8.4,1.21,22.45,22.45,0,0,1,7.23,3.75,32.88,32.88,0,0,1,7.18-3.53,28.45,28.45,0,0,1,9.51-1.43,30.67,30.67,0,0,1,7.86,1,17.92,17.92,0,0,1,6.61,3.28,16.45,16.45,0,0,1,4.59,5.91,20.34,20.34,0,0,1,1.74,8.82Z"/><path class="cls-1" d="M320.31,51a10.26,10.26,0,0,0,5.18,6.28A18.75,18.75,0,0,0,334,59.14a28,28,0,0,0,8.35-1.21,28.57,28.57,0,0,0,6.33-2.7A8.9,8.9,0,0,1,351.36,58a6.81,6.81,0,0,1,1.06,3.7,6.41,6.41,0,0,1-1.48,4.22,11.44,11.44,0,0,1-4.07,3,23.28,23.28,0,0,1-6.12,1.8,48.93,48.93,0,0,1-7.76.58,36.26,36.26,0,0,1-11.51-1.75,25,25,0,0,1-9.09-5.17,23.76,23.76,0,0,1-6-8.61,31.19,31.19,0,0,1-2.17-12.14,29.07,29.07,0,0,1,2.17-11.73,23.62,23.62,0,0,1,5.8-8.23,23,23,0,0,1,8.35-4.81,31,31,0,0,1,9.66-1.53A28.72,28.72,0,0,1,340.12,19a22.84,22.84,0,0,1,7.71,4.59,20.82,20.82,0,0,1,5,7.08,22.15,22.15,0,0,1,1.8,9,6.61,6.61,0,0,1-1.8,5.07,9.37,9.37,0,0,1-5.07,2.22Zm10-21.76a10.71,10.71,0,0,0-7.56,2.8q-3,2.81-3.53,8.08l20.17-3.27A8.6,8.6,0,0,0,337,31.68Q334.78,29.25,330.35,29.25Z"/></svg>