<svg id="Capa_1" data-name="Capa 1" xmlns="http://www.w3.org/2000/svg" viewBox="0 0 85.46 131.95"><defs><style>.cls-1{fill:#915a17;}.cls-2{fill:#d4a267;}.cls-3{fill:#e6cfad;}.cls-4{fill:#fff;}</style></defs><title>ele</title><path class="cls-1" d="M42.6,0S25.44,20.58,25.44,30.33,42.6,60.65,42.6,60.65,59.77,40.08,59.77,30.33,42.6,0,42.6,0Z"/><path class="cls-2" d="M42.67,90.37c.29-2.25.54-4.5.88-6.73,1-6.78,2.26-13.5,4.74-19.93a15.61,15.61,0,0,1,9.15-9.24,76.28,76.28,0,0,1,16.61-4.23c3.48-.55,7-.93,10.48-1.38a7.5,7.5,0,0,1,.85,0c-.2,1.85-.35,3.65-.6,5.43a104.92,104.92,0,0,1-4,19.15,38,38,0,0,1-3,6.87,13.32,13.32,0,0,1-7.17,5.54A85.32,85.32,0,0,1,52.22,90.3c-2.83.4-5.67.89-8.52,1a38.9,38.9,0,0,1-7-.47,105.4,105.4,0,0,1-19.94-4.26c-3-1-5.9-2.16-7.93-4.67A23.9,23.9,0,0,1,5.69,76.8,60,60,0,0,1,1.61,61.57c-.66-4-1.08-8-1.6-12,0-.2,0-.4,0-.76,2,.22,3.93.32,5.83.66,5.16.91,10.33,1.76,15.42,2.95a48.71,48.71,0,0,1,8.54,3.09c3.65,1.62,5.81,4.68,7.23,8.32,2.58,6.59,3.74,13.51,4.75,20.46.3,2,.5,4.09.75,6.13Z"/><path class="cls-3" d="M85.46,89.18c-.38,3-.57,5.7-1.08,8.33-1,5.27-2.1,10.54-3.38,15.75a32.34,32.34,0,0,1-2.55,6.51c-1.65,3.33-4.54,5.34-7.93,6.63a92.34,92.34,0,0,1-20.87,4.82,37.44,37.44,0,0,1-6.86.72c-3.76-.2-7.5-.77-11.22-1.32A84.92,84.92,0,0,1,17,127.21c-3.07-1-6.08-2.22-8.21-4.79A19.74,19.74,0,0,1,6,118.05a61.1,61.1,0,0,1-4.37-15.91c-.66-4-1.08-8-1.6-12,0-.2,0-.41,0-.76,1.73.18,3.42.26,5.09.54,5.12.88,10.27,1.66,15.34,2.82A31.87,31.87,0,0,1,31.6,97,14.89,14.89,0,0,1,37,104.12a76.51,76.51,0,0,1,4.23,16.72c.54,3.38.94,6.78,1.45,10.42.16-1.24.3-2.26.43-3.29,1-8,2.3-16,5.22-23.67a15.5,15.5,0,0,1,9-9.21,73,73,0,0,1,16.18-4.2C77.38,90.29,81.28,89.77,85.46,89.18Z"/><circle class="cls-4" cx="42.6" cy="30.33" r="11.01"/><circle class="cls-1" cx="42.6" cy="30.33" r="4.97"/></svg>